<?xml version="1.0" encoding="UTF-8"?>
<svg id="_Слой_1" data-name="Слой 1" xmlns="http://www.w3.org/2000/svg" viewBox="0 0 453.7 104.59">
  <defs>
    <style>
      .cls-1 {
        fill: #fff;
      }
    </style>
  </defs>
  <path class="cls-1" d="M61.63,35.53s22.64-28.4-1.3-33.78C47.07-1.24,7.43.51,7.43.51l10.76,7.83L0,104.59s73.17-24.46,72.78-56.35c0,0,1.57-9.39-11.15-12.72ZM53.35,49.29c-3.72,16.24-30.13,21.33-30.13,21.33l13.2-54.78c7.37,0,12.17-.8,13.71,1.37,5.46,7.69-19.17,27.34-19.17,27.34l13-.15c9.98,0,9.39,4.89,9.39,4.89Z"/>
  <polygon class="cls-1" points="68.78 85.58 115.15 85.58 126.3 65.82 93.43 65.82 95.98 52.3 123.37 52.3 127.28 37.45 99.5 37.45 103.8 17.89 130.61 17.89 134.91 0 88.35 0 68.78 85.58"/>
  <polygon class="cls-1" points="129.3 85.58 173.39 85.58 180.63 64.11 171.79 66.34 152.26 66.34 166.61 1.13 141.82 1.13 145.48 6.6 129.3 83.3 129.3 85.58"/>
  <polygon class="cls-1" points="180.63 84.93 199.08 8.04 196.74 0 219.91 0 198.89 84.93 180.63 84.93"/>
  <polygon class="cls-1" points="204.76 85.58 251.13 85.58 262.28 65.82 229.41 65.82 231.95 52.3 259.35 52.3 263.26 37.45 235.48 37.45 239.78 17.89 266.58 17.89 270.89 0 224.32 0 204.76 85.58"/>
  <polygon class="cls-1" points="326.19 85.58 363.95 85.58 383.71 65.82 350.85 65.82 353.39 52.3 366.3 52.3 384.69 37.45 356.91 37.45 361.21 17.89 388.02 17.89 392.32 0 345.76 0 326.19 85.58"/>
  <polygon class="cls-1" points="272.98 0 289.61 0 295.28 50.17 318.76 0 341.45 0 300.76 85.58 281.19 85.58 272.98 0"/>
  <path class="cls-1" d="M379.67,87.28l18.78-76.3L393.76,0h42.85s15.79,0,15.48,16.92c-.26,14.35-3.18,19.09-21.94,35.14l23.55,38.15-18.85-2.15-25.83-30.91,1.57-12.04s34.04-26.31,14.48-27.48h-9.2l-14.87,60.85-21.33,8.8Z"/>
</svg>